<svg id="Layer_1" data-name="Layer 1" xmlns="http://www.w3.org/2000/svg" viewBox="0 0 211.33 258.5"><defs><style>.cls-1{fill:#694b4b;}.cls-2{fill:#5a4146;}.cls-3{fill:#464655;}.cls-4{fill:#d29b6e;}.cls-5{fill:#5b5d6e;}.cls-6{fill:#f0c087;}.cls-7{fill:#e6af78;}.cls-8{fill:#707487;}</style></defs><title>student</title><path class="cls-1" d="M-109.73,98.74H-215.4c-5.28,5.28-6.47,21.63-5.08,30.32l3.6,22.52h108.62l3.6-22.52C-103.26,120.36-104.45,104-109.73,98.74Z" transform="translate(268.23 -41)"/><path class="cls-2" d="M-156.06,128l49.52-12.58a15.42,15.42,0,0,0,2.06-.74c-0.66-6.6-2.3-13-5.25-16H-215.4c-5.28,5.28-6.47,21.63-5.08,30.32l3.6,22.52h54.31V128.85A26.38,26.38,0,0,0-156.06,128Z" transform="translate(268.23 -41)"/><path class="cls-3" d="M-72,247.43l-38.69-11.66H-214.23l-38.94,11.66a21.13,21.13,0,0,0-15.06,20.24v21.26a10.57,10.57,0,0,0,10.57,10.57h190.2A10.57,10.57,0,0,0-56.9,288.94V267.68A21.13,21.13,0,0,0-72,247.43Z" transform="translate(268.23 -41)"/><polygon class="cls-4" points="142.65 158.12 142.65 187.62 105.67 217.75 68.68 187.62 68.68 158.12 142.65 158.12"/><path class="cls-5" d="M-117.2,224.9a5.28,5.28,0,0,0-7.57-1.3L-162.56,252l-37.8-28.35a5.28,5.28,0,0,0-7.57,1.3l-7.47,11.2,23.17,32.44a5.28,5.28,0,0,0,7.6,1.05l12.49-10a2.64,2.64,0,0,1,4.29,2.06V299.5h10.57V261.67a2.64,2.64,0,0,1,4.29-2.06l12.49,10a5.28,5.28,0,0,0,7.6-1.05l23.17-32.44Z" transform="translate(268.23 -41)"/><path class="cls-5" d="M-236.95,273.62L-262,252.77a21.1,21.1,0,0,0-6.18,14.9v21.26a10.57,10.57,0,0,0,10.57,10.57h26.42V285.79A15.85,15.85,0,0,0-236.95,273.62Z" transform="translate(268.23 -41)"/><path class="cls-5" d="M-56.9,288.94V267.68a21.11,21.11,0,0,0-6.22-14.95l-25.06,20.89a15.85,15.85,0,0,0-5.7,12.18V299.5h26.42A10.57,10.57,0,0,0-56.9,288.94Z" transform="translate(268.23 -41)"/><path class="cls-6" d="M-109.73,146.29H-116a5.28,5.28,0,0,1-5.18-4.25l-2.74-13.68a10.57,10.57,0,0,0-10.36-8.49h-56.64a10.57,10.57,0,0,0-10.36,8.49L-204,142a5.28,5.28,0,0,1-5.18,4.25h-6.23A10.57,10.57,0,0,0-226,156.85v10.57A10.57,10.57,0,0,0-215.4,178h2.75l1.28,8a21.13,21.13,0,0,0,7.34,12.9l21.2,17.67a15.85,15.85,0,0,0,10.15,3.67h20.22a15.85,15.85,0,0,0,10.15-3.67l21.2-17.67a21.13,21.13,0,0,0,7.34-12.9l1.28-8h2.75a10.57,10.57,0,0,0,10.57-10.57V156.85A10.57,10.57,0,0,0-109.73,146.29Z" transform="translate(268.23 -41)"/><path class="cls-7" d="M-178.41,183.41V135.72a5.28,5.28,0,0,1,5.28-5.28h49.66l-0.41-2.07a10.57,10.57,0,0,0-10.36-8.5h-56.64a10.57,10.57,0,0,0-10.36,8.49L-204,142a5.28,5.28,0,0,1-5.18,4.25h-6.24A10.57,10.57,0,0,0-226,156.85v10.57A10.57,10.57,0,0,0-215.4,178h2.75l1.28,8a21.13,21.13,0,0,0,7.34,12.9l21.21,17.67a15.85,15.85,0,0,0,10.15,3.67h4.83l-8.94-26.82A31.7,31.7,0,0,1-178.41,183.41Z" transform="translate(268.23 -41)"/><rect class="cls-3" x="184.92" y="20.75" width="10.57" height="47.55"/><path class="cls-5" d="M-214.52,67l-5.37,32.19a5.28,5.28,0,0,0,3.91,6l49.51,12.58a15.86,15.86,0,0,0,7.81,0l49.52-12.58a5.28,5.28,0,0,0,3.91-6L-110.61,67H-214.52Z" transform="translate(268.23 -41)"/><path class="cls-3" d="M-158.27,92.87l50.37-9.63h0l-2.7-16.2H-214.52l-5.37,32.19a5.28,5.28,0,0,0,3.91,6l49.51,12.58a15.84,15.84,0,0,0,3.9.49V98.06A5.28,5.28,0,0,1-158.27,92.87Z" transform="translate(268.23 -41)"/><path class="cls-8" d="M-166.48,41.37l-94.41,18a2.44,2.44,0,0,0,0,4.79l94.41,18a21.12,21.12,0,0,0,7.91,0l94.41-18a2.44,2.44,0,0,0,0-4.79l-94.41-18A21.12,21.12,0,0,0-166.48,41.37Z" transform="translate(268.23 -41)"/><path class="cls-5" d="M-78,104h0A10.57,10.57,0,0,0-88.6,114.59v15.85a5.28,5.28,0,0,0,5.28,5.28h10.57a5.28,5.28,0,0,0,5.28-5.28V114.59A10.57,10.57,0,0,0-78,104Z" transform="translate(268.23 -41)"/></svg>