<svg id="Layer_1" data-name="Layer 1" xmlns="http://www.w3.org/2000/svg" viewBox="0 0 208.79 286"><defs><style>.cls-1{fill:#f9b54c;}.cls-2{fill:#e6e9ee;}.cls-3{fill:#f1543f;}.cls-4{fill:#ff7058;}.cls-5{fill:#324a5e;}.cls-6{fill:#2b3b4e;}.cls-7{fill:#acb3ba;}.cls-8{fill:#ced5e0;}.cls-9{fill:#fff;}.cls-10{fill:#ffd05b;}.cls-11,.cls-12{fill:none;stroke:#2c9984;stroke-miterlimit:10;stroke-width:1.55px;}.cls-12{stroke-linecap:round;}</style></defs><title>teacher</title><path class="cls-1" d="M-150.7,275.71c0,20.36-13.73,27-30.3,27s-30.3-6.63-30.3-27,13.49-47.11,30.3-47.11S-150.7,255.35-150.7,275.71Z" transform="translate(285.39 -145)"/><path class="cls-2" d="M-149.28,271.21l-1.66,84-9.71,27.46-17,48.29h-7.58l-17-47.35-14.2-39.77V279.73l5-11.84,0.24,0.24,1.66,1.66,18.7,19.41,3.31,3.31,5.92-3.31,0.24-.24,5.21-2.84h0l23-13,2.13-1.18h0Z" transform="translate(285.39 -145)"/><polygon class="cls-3" points="93.98 144.2 87.83 152.49 95.64 162.9 113.16 162.9 120.97 152.49 114.81 144.2 93.98 144.2"/><path class="cls-4" d="M-156.38,408.51l-8.52,9.71h0L-176,430.76h-10.18l-11.13-12.55h0l-8.52-9.71,1.18-6.87,2.84-18.23,4-26h0L-190,307.9h17.52l8,49.48h0l4,25.33,3.08,18.94Z" transform="translate(285.39 -145)"/><path class="cls-5" d="M-243.49,373.71c-2.13,1.66-4.26,18.23-6.63,40.48a0.83,0.83,0,0,1-.47-0.24,151.41,151.41,0,0,1-34.8-25.09c3.79-49.71,7.34-91.14,7.34-91.14h0V298Z" transform="translate(285.39 -145)"/><path class="cls-6" d="M-182.18,431H-186a31.73,31.73,0,0,1-4.73-.24,149.8,149.8,0,0,1-59.18-16.33,0.83,0.83,0,0,1-.47-0.24c-9-59.42-26-112.21-27.22-116V298h0c44.27-9.47,67-37.64,69.36-41h0a0.23,0.23,0,0,1,.24-0.24,0.87,0.87,0,0,1-.24.71A57.66,57.66,0,0,0-209.4,270a153.6,153.6,0,0,0,.95,17h0c0,1.18.24,2.37,0.24,3.79h0c1.89,19.65,6.15,43.79,10.42,66.52h0c7.34,38.59,15.39,72.91,15.39,72.91A0.87,0.87,0,0,1-182.18,431Z" transform="translate(285.39 -145)"/><path class="cls-7" d="M-182.18,431H-186a31.73,31.73,0,0,1-4.73-.24c-2.13-4-4.26-8-6.39-12.31h0c-2.6-5.21-5-10.89-7.34-16.57-18.7-44.27-31.25-95.64-31.25-95.64,3.79,0.47,14-4.26,14-4.26l-14-16.33c14.91-3.79,25.33-23.67,27.7-28.17a3.37,3.37,0,0,0,.47-0.95,0.87,0.87,0,0,1-.24.71,57.66,57.66,0,0,0-1.18,12.55,153.6,153.6,0,0,0,.95,17h0c0,1.18.24,2.37,0.24,3.79h0c1.89,19.65,6.15,43.79,10.42,66.52h0c7.34,38.59,15.39,72.91,15.39,72.91A1.79,1.79,0,0,0-182.18,431Z" transform="translate(285.39 -145)"/><path class="cls-6" d="M-76.6,388.86A146.48,146.48,0,0,1-111.4,414a0.83,0.83,0,0,0-.47.24c-2.13-22.49-4.5-38.82-6.63-40.48L-84.18,298v-0.24h0S-80.39,339.39-76.6,388.86Z" transform="translate(285.39 -145)"/><path class="cls-5" d="M-84.18,297.72h0c-1.18,4-18.23,56.81-27.22,116.23a0.83,0.83,0,0,0-.47.24,148.08,148.08,0,0,1-59.18,16.33c-1.66,0-3.08.24-4.73,0.24h-4v-0.47s8-34.33,15.39-72.91h0c4.26-22.73,8.29-47.11,10.42-66.52h0c0-1.18.24-2.37,0.24-3.55h0c0.47-5,.71-9.71.95-13.73a60.85,60.85,0,0,0-1.18-16.1h0a0.87,0.87,0,0,0-.24-0.71h0L-154,257h0C-151.88,259.61-129.15,288.25-84.18,297.72Z" transform="translate(285.39 -145)"/><path class="cls-8" d="M-126.08,306.24s-12.55,51.13-31.25,95.64c-2.37,5.68-5,11.13-7.34,16.57h0c-2.13,4.26-4.26,8.52-6.39,12.31-1.66,0-3.08.24-4.73,0.24h-4v-0.47s8-34.33,15.39-72.91h0c4.26-22.73,8.29-47.11,10.42-66.52h0c0-1.18.24-2.37,0.24-3.55h0c0.47-5,.71-9.71.95-13.73a60.85,60.85,0,0,0-1.18-16.1h0a0.87,0.87,0,0,0-.24-0.71h0a1,1,0,0,1,.24.71h0c2.13,4.26,12.78,24.38,27.7,28.17L-140,302S-129.86,306.72-126.08,306.24Z" transform="translate(285.39 -145)"/><path class="cls-9" d="M-154.25,256.53S-147.62,271.44-181,289l15.15,22.49C-165.85,311.69-141.94,277.6-154.25,256.53Z" transform="translate(285.39 -145)"/><path class="cls-9" d="M-207.75,256.53S-214.38,271.44-181,289l-15.15,22.49C-196.15,311.69-220.06,277.6-207.75,256.53Z" transform="translate(285.39 -145)"/><path class="cls-10" d="M-141.46,207.53c0,29.35-17.75,67.7-39.53,67.7s-39.53-38.35-39.53-67.7,17.75-38.59,39.53-38.59S-141.46,178.17-141.46,207.53Z" transform="translate(285.39 -145)"/><path class="cls-10" d="M-132.7,221.73c-2.37,5.44-6.87,8.76-9.94,7.58s-3.79-6.39-1.42-11.84,6.87-8.76,9.94-7.58C-130.81,210.84-130.34,216.29-132.7,221.73Z" transform="translate(285.39 -145)"/><path class="cls-10" d="M-229.29,221.73c2.37,5.44,6.87,8.76,9.94,7.58s3.79-6.39,1.42-11.84-6.87-8.76-9.94-7.58C-231.18,210.84-231.66,216.29-229.29,221.73Z" transform="translate(285.39 -145)"/><path class="cls-5" d="M-181.23,179.36C-169.63,173-142.65,164-142.65,222c0,0,26-66.52-13.73-67.47,0,0-27.93-28.41-64.15,13l5.68-2.84s-29.12,17-4.26,57.29c0,0-4.26-58.24,27.93-42.37A10.57,10.57,0,0,0-181.23,179.36Z" transform="translate(285.39 -145)"/><path class="cls-11" d="M-148.09,226h-23.67a4.75,4.75,0,0,1-4.73-4.73V212.5a4.75,4.75,0,0,1,4.73-4.73h23.67a4.75,4.75,0,0,1,4.73,4.73v8.76A4.75,4.75,0,0,1-148.09,226Z" transform="translate(285.39 -145)"/><path class="cls-11" d="M-190.23,226H-213.9a4.75,4.75,0,0,1-4.73-4.73V212.5a4.75,4.75,0,0,1,4.73-4.73h23.67a4.75,4.75,0,0,1,4.73,4.73v8.76A5.09,5.09,0,0,1-190.23,226Z" transform="translate(285.39 -145)"/><path class="cls-12" d="M-185.5,215.1a4.49,4.49,0,0,1,4.5-4.5,4.66,4.66,0,0,1,4.5,4.5" transform="translate(285.39 -145)"/></svg>